#!OML:ASF H:\Not Pregnant\Project 1\Capture day 1\Session 1\non-pregnant.ASF
:FULLY-SPECIFIED
:DEGREES
273
root 3.90539 15.5537 7.35549 13.3392 -5.92764 -1.41907
lowerback 0.912306 1.73822 1.90518
upperback -5.46478 2.38113 -0.558953
thorax -6.07737 1.07036 -1.79188
lowerneck 16.1468 -8.09364 -34.123
upperneck -3.76383 -16.8678 37.3023
head 3.02267 -10.0759 19.41
rclavicle -2.61153e-014 -2.98177e-016
rhumerus -48.188 22.5376 -104.386
rradius 86.7045
rwrist -9.69295
rhand -5.67599 -17.5693
rfingers 7.12502
rthumb 20.1438 -46.545
lclavicle -2.61153e-014 -2.98177e-016
lhumerus -50.6519 -23.5164 95.7622
lradius 93.5968
lwrist 43.8255
lhand -5.94098 -12.4778
lfingers 7.12502
lthumb 19.8891 16.5244
rfemur -42.6562 5.83477 25.4243
rtibia 49.2313
rfoot -17.2216 6.81737
rtoes -12.0864
lfemur -12.1392 5.09405 -20.1766
ltibia 63.7119
lfoot 5.17826 -11.6779
ltoes -31.233
274
root 3.9223 15.4863 7.59331 12.4712 -6.20548 -2.65347
lowerback 2.32079 2.04273 3.1039
upperback -5.18207 2.91329 -0.0716589
thorax -6.53756 1.28033 -2.03891
lowerneck 16.5745 -8.08368 -34.2768
upperneck -4.48951 -16.8685 37.3987
head 2.78427 -10.1107 19.5265
rclavicle 3.04948e-014 -3.27995e-015
rhumerus -46.7942 23.8111 -104.081
rradius 86.543
rwrist -9.38219
rhand -5.00659 -17.462
rfingers 7.12502
rthumb 20.7871 -46.3686
lclavicle 3.04948e-014 -3.27995e-015
lhumerus -51.6546 -22.8949 96.3871
lradius 94.1872
lwrist 43.5
lhand -5.1819 -12.12
lfingers 7.12502
lthumb 20.6186 16.8049
rfemur -40.8508 6.08539 26.8295
rtibia 49.9139
rfoot -18.4462 6.65693
rtoes -12.1353
lfemur -13.1229 5.87925 -18.4057
ltibia 66.8834
lfoot 3.37382 -11.498
ltoes -31.8474
275
root 3.94124 15.4257 7.83092 11.8117 -6.42387 -4.20106
lowerback 3.59364 2.31693 4.67123
upperback -4.96032 3.46845 0.464798
thorax -6.95954 1.47923 -2.4504
lowerneck 17.0328 -8.07679 -34.3389
upperneck -5.22012 -16.8625 37.4755
head 2.52469 -10.1428 19.622
rclavicle 7.4156e-016 1.60705e-014
rhumerus -45.2491 24.8318 -103.577
rradius 86.4609
rwrist -10.3672
rhand -3.37325 -17.7034
rfingers 7.12502
rthumb 22.3557 -46.4299
lclavicle 7.4156e-016 1.60705e-014
lhumerus -52.6691 -22.2288 96.918
lradius 94.6463
lwrist 43.3281
lhand -4.64832 -11.6832
lfingers 7.12502
lthumb 21.1313 17.1853
rfemur -39.0088 6.22645 28.5778
rtibia 50.2451
rfoot -19.5345 6.59213
rtoes -12.1293
lfemur -14.348 6.67011 -16.2444
ltibia 69.9528
lfoot 1.57074 -11.4082
ltoes -32.0607
276
root 3.96127 15.3702 8.06977 11.4262 -6.58898 -5.82959
lowerback 4.60424 2.56723 6.36068
upperback -4.82271 4.03002 0.978489
thorax -7.29738 1.67008 -2.95119
lowerneck 17.5374 -8.07713 -34.3084
upperneck -5.95176 -16.8602 37.5378
head 2.24699 -10.1799 19.6994
rclavicle -1.71141e-014 1.21259e-014
rhumerus -43.7452 25.7575 -103.122
rradius 86.2739
rwrist -11.3317
rhand -2.20469 -18.2097
rfingers 7.12502
rthumb 23.4771 -46.7973
lclavicle -1.71141e-014 1.21259e-014
lhumerus -53.6588 -21.569 97.3541
lradius 94.9282
lwrist 43.3363
lhand -4.35342 -11.1617
lfingers 7.12502
lthumb 21.4145 17.6748
rfemur -37.335 6.27152 30.3818
rtibia 50.3826
rfoot -20.494 6.58156
rtoes -12.2439
lfemur -15.9109 7.41381 -13.9938
ltibia 72.8775
lfoot -0.203882 -11.3488
ltoes -32.113
277
root 3.98025 15.3184 8.3076 11.3508 -6.63473 -7.24121
lowerback 5.28583 2.78341 7.84531
upperback -4.79469 4.53456 1.39599
thorax -7.55773 1.83755 -3.42142
lowerneck 18.05 -8.10478 -34.1865
upperneck -6.64044 -16.8855 37.5718
head 1.97754 -10.2307 19.7415
rclavicle 2.50344e-015 -1.41137e-014
rhumerus -42.2783 26.5193 -102.677
rradius 86.0311
rwrist -12.3958
rhand -1.27723 -18.9735
rfingers 7.12502
rthumb 24.3665 -47.4444
lclavicle 2.50344e-015 -1.41137e-014
lhumerus -54.5871 -20.9274 97.6992
lradius 95.0078
lwrist 43.5207
lhand -4.29586 -10.5238
lfingers 7.12502
lthumb 21.4698 18.3064
rfemur -36.0462 6.19718 31.9067
rtibia 50.5069
rfoot -21.3796 6.57031
rtoes -12.4796
lfemur -17.9361 7.98159 -12.0305
ltibia 75.6167
lfoot -1.87015 -11.2451
ltoes -32.0799
278
root 3.99747 15.2704 8.54694 11.5102 -6.54588 -8.21573
lowerback 5.62197 2.97539 8.89923
upperback -4.85225 4.94664 1.66766
thorax -7.7242 1.97868 -3.77924
lowerneck 18.5867 -8.16269 -34.0055
upperneck -7.29149 -16.9537 37.5941
head 1.72391 -10.3057 19.7624
rclavicle -3.41288e-014 -1.98785e-016
rhumerus -40.9178 27.1554 -102.3
rradius 85.7077
rwrist -13.0494
rhand -0.985263 -19.8534
rfingers 7.12502
rthumb 24.6463 -48.2864
lclavicle -3.41288e-014 -1.98785e-016
lhumerus -55.4197 -20.3056 97.975
lradius 94.8725
lwrist 43.8377
lhand -4.49556 -9.79134
lfingers 7.12502
lthumb 21.278 19.0606
rfemur -35.158 5.99043 32.9222
rtibia 50.7334
rfoot -22.265 6.51467
rtoes -12.8606
lfemur -20.3659 8.29088 -10.6453
ltibia 78.1
lfoot -3.38672 -11.0075
ltoes -32.0276
279
root 4.01215 15.2272 8.78855 11.7862 -6.29057 -8.69447
lowerback 5.68926 3.13236 9.45966
upperback -4.9587 5.23469 1.79487
thorax -7.8167 2.08403 -3.98859
lowerneck 19.1188 -8.25079 -33.8058
upperneck -7.86704 -17.0735 37.6231
head 1.51119 -10.4087 19.7746
rclavicle -1.40205e-014 4.25399e-014
rhumerus -39.7099 27.6992 -102.024
rradius 85.311
rwrist -13.0118
rhand -1.51917 -20.6777
rfingers 7.12502
rthumb 24.1345 -49.1796
lclavicle -1.40205e-014 4.25399e-014
lhumerus -56.14 -19.6822 98.2068
lradius 94.5331
lwrist 44.2121
lhand -4.98247 -8.92581
lfingers 7.12502
lthumb 20.8103 19.9782
rfemur -34.5641 5.6284 33.3896
rtibia 51.0885
rfoot -23.1868 6.38285
rtoes -13.3275
lfemur -23.066 8.27425 -9.90575
ltibia 80.2759
lfoot -4.76746 -10.6026
ltoes -32.0978
